<svg id="Capa_1" enable-background="new 0 0 512 512" height="512" viewBox="0 0 512 512" width="512" xmlns="http://www.w3.org/2000/svg"><g><circle cx="256" cy="286" fill="#fed843" r="135"/><path d="m391 286c0-74.559-60.441-135-135-135v270c74.559 0 135-60.441 135-135z" fill="#fabe2c"/><path d="m256 31c-8.291 0-15 6.709-15 15v60c0 8.291 6.709 15 15 15s15-6.709 15-15v-60c0-8.291-6.709-15-15-15z" fill="#fed843"/><path d="m271 106v-60c0-8.291-6.709-15-15-15v90c8.291 0 15-6.709 15-15z" fill="#fabe2c"/><path d="m221.884 271.571c-9.024 2.578-221.884 64.6-221.884 194.429 0 8.291 6.709 15 15 15h151.287l68.71-206.992c-3.606-2.704-8.395-3.805-13.113-2.437z" fill="#fff5f5"/><g><path d="m153.007 137.611-30-51.958c-4.146-7.178-1.685-16.348 5.493-20.493 7.119-4.131 16.333-1.685 20.493 5.493l30 51.958c4.146 7.178 1.685 16.348-5.493 20.493-7.153 4.132-16.344 1.691-20.493-5.493z" fill="#fed843"/></g><g><path d="m398.896 203.5c-4.146-7.178-1.685-16.348 5.493-20.493l51.958-30c7.134-4.146 16.348-1.714 20.493 5.493 4.146 7.178 1.685 16.348-5.493 20.493l-51.958 30c-7.153 4.132-16.345 1.691-20.493-5.493z" fill="#fabe2c"/></g><g><path d="m338.5 143.104c-7.178-4.146-9.639-13.315-5.493-20.493l30-51.958c4.146-7.178 13.315-9.624 20.493-5.493 7.178 4.146 9.639 13.315 5.493 20.493l-30 51.958c-4.156 7.197-13.354 9.617-20.493 5.493z" fill="#fabe2c"/></g><g><path d="m92.611 208.993-51.958-30c-7.178-4.146-9.639-13.315-5.493-20.493 4.146-7.207 13.33-9.639 20.493-5.493l51.958 30c7.178 4.146 9.639 13.315 5.493 20.493-4.156 7.197-13.354 9.617-20.493 5.493z" fill="#fed843"/></g><g><path d="m76 301h-61c-8.291 0-15-6.709-15-15s6.709-15 15-15h61c8.291 0 15 6.709 15 15s-6.709 15-15 15z" fill="#fed843"/></g><path d="m512 286c0 8.291-6.709 15-15 15h-61c-8.291 0-15-6.709-15-15s6.709-15 15-15h61c8.291 0 15 6.709 15 15" fill="#fabe2c"/><path d="m362.655 361.088c-44.851-4.984-85.655-9.844-106.655-32.875-9.21-10.1-15-23.337-15-42.213 0-5.03-2.417-9.304-6.002-11.992-3.115 2.327-73.057 54.824-68.71 206.992h30.049 59.663 241c8.291 0 15-6.709 15-15 0-88.433-83.251-97.559-149.345-104.912z" fill="#efe2dd"/></g></svg>