<svg id="Capa_1" enable-background="new 0 0 512 512" height="512" viewBox="0 0 512 512" width="512" xmlns="http://www.w3.org/2000/svg" xmlns:xlink="http://www.w3.org/1999/xlink"><linearGradient id="SVGID_1_" gradientUnits="userSpaceOnUse" x1="45.274" x2="466.726" y1="256" y2="256"><stop offset=".0485" stop-color="#d2deff"/><stop offset=".9993" stop-color="#dcfdee"/></linearGradient><g><g><g><path d="m97.146 38.232c-135.328 119.538 38.831 235.409 22.243 366.028-7.375 58.072 16.054 113.588 92.705 107.244 93.413-7.732 59.504-97.209 79.066-156.778 33.66-102.501 240.73-78.56 154.895-236.448-54.778-100.758-255.766-162.321-348.909-80.046z" fill="url(#SVGID_1_)"/></g><g><g><path d="m392.82 193.279c-.696 0-1.386.024-2.075.052-17.528-57.623-71.08-99.556-134.432-99.556-9.697 0-19.165.982-28.309 2.853-7.358-18.013-25.043-30.711-45.703-30.711-27.26 0-49.359 22.099-49.359 49.359 0 12.574 4.71 24.044 12.451 32.759-18.536 23.806-29.581 53.731-29.581 86.239 0 29.11 19.778 75.223 44.489 121.484-16.215 8.09-27.359 24.831-27.359 44.184 0 27.26 22.099 49.359 49.359 49.359 10.331 0 19.917-3.179 27.844-8.605 11.244 17.811 21.554 33.452 29.563 45.366 7.931 11.798 25.278 11.798 33.209 0 27.965-41.597 83.944-128.566 109.981-195.064 3.205.654 6.523.998 9.921.998 27.26 0 49.359-22.099 49.359-49.359.002-27.259-22.097-49.358-49.358-49.358z" fill="#2626bc" opacity=".1"/><g><g><path d="m396.813 210.276c0 60.96-86.714 196.481-123.895 251.788-7.931 11.798-25.278 11.798-33.209 0-37.181-55.307-123.895-190.827-123.895-251.788 0-77.596 62.904-140.5 140.5-140.5s140.499 62.904 140.499 140.5z" fill="#ffa8cf"/><g fill="#ff7eb8"><path d="m396.813 210.276c0 19.3-8.69 46.08-21.76 75.42-18.48-7.13-31.59-25.06-31.59-46.06 0-27.26 22.1-49.36 49.36-49.36.87 0 1.73.02 2.59.06.92 6.51 1.4 13.17 1.4 19.94z"/><path d="m231.663 396.946c0 12.82-4.89 24.49-12.9 33.27-15.02-23.34-32.6-51.79-48.95-81.04 3.99-1.04 8.18-1.59 12.49-1.59 27.26 0 49.36 22.1 49.36 49.36z"/><path d="m231.663 112.276c0 27.26-22.1 49.36-49.36 49.36-19.35 0-36.1-11.14-44.19-27.35 17.85-27.71 45.19-48.74 77.42-58.5 9.91 9.02 16.13 22.03 16.13 36.49z"/></g><g><circle cx="256.313" cy="210.276" fill="#dcfdee" r="102.083"/><path d="m231.643 111.196c.02.36.02.72.02 1.08 0 27.26-22.1 49.36-49.36 49.36-5.06 0-9.94-.76-14.54-2.19 13.67-23.75 36.61-41.48 63.88-48.25z" fill="#97ffd2"/><g><path d="m232.452 296.529c-.595 2.866.35 8.833.36 13.108-10.942-2.579-21.199-6.912-30.465-12.696-3.419-9.021-1.697-18.046-2.031-28.502-.475-14.752-9.396-15.473-20.286-22.123-9.078-5.549-17.415-11.156-24.138-17.608-1.091-5.977-1.66-12.137-1.66-18.433 0-20.374 5.967-39.35 16.256-55.282 1.79 2.302 4.406 3.023 8.812 3.221 2.72-2.751 5.591-3.414 8.619-1.989.428.987.856 1.973 1.284 2.96-.24 2.193.371 4.103 1.827 5.737 3.153.48 6.207.094 9.167-1.159 4.458-.903 9.375-3.889 13.933-4.035 18.563-.59 6.734 12.252 1.117 20.489-6.416 9.417-9.302 22.755-21.189 27.124-8.692 3.195-19.283-1.164-19.685 12.529-.318 10.801 12.205 22.264 21.648 25.511 11.558 3.967 26.43-1.916 37.664 4.881 8.441 5.105 6.139 21.8 4.056 31.65-1.066 5.033-4.219 9.444-5.289 14.617z" fill="#02ffb3"/></g><g><path d="m246.056 132.646c-2.568 3.811-6.546 6.833-7.778 11.255-1.315 4.714.58 10.607-2.871 14.074-5.34-3.612-7.663-10.514-7.434-16.95.141-3.816.715-8.425-2.36-10.691-2.725-2.01-7.627-1.441-8.582-4.693-.407-1.389.214-2.944-.271-4.307-.527-1.498-2.161-2.239-3.362-3.278-.104-.089-.204-.188-.298-.292 11.317-5.293 23.762-8.572 36.876-9.376.47 8.342.747 17.336-3.92 24.258z" fill="#02ffb3"/></g><g><path d="m231.663 112.276c0 7.21-1.55 14.06-4.33 20.23-.38-.84-.93-1.59-1.72-2.17-2.73-2.01-7.63-1.44-8.58-4.7-.41-1.38.21-2.94-.27-4.3-.53-1.5-2.16-2.24-3.37-3.28-.1-.09-.19-.18-.28-.28 5.89-2.77 12.09-4.98 18.53-6.58.02.36.02.72.02 1.08z" fill="#01eca5"/></g><g><path d="m358.395 210.276c0 41.287-24.509 76.847-59.766 92.925 1.31-3.9 3.852-7.616 5.768-11.344 3.367-6.551 4.949-13.881 5.81-21.194.459-3.905.308-8.692-3.08-10.686-1.764-1.039-3.931-.981-5.977-1.013-3.618-.057-7.225-.496-10.748-1.31-3.779-.877-7.669-2.318-10.096-5.351-3.623-4.531-2.908-11.025-2.01-16.757.924-5.888 1.848-11.772 2.772-17.66.757-4.839 2.146-10.508 6.713-12.294 3.127-1.222 6.614-.099 9.965.151 9.851.726 19.002-6.269 28.862-5.747 1.728.094 3.492.412 5.158-.042 1.195-.329 2.26-1.044 3.163-1.895 5.184-4.85 5.011-13.087 3.498-20.025-.663-3.043-1.577-6.176-3.691-8.462-2.119-2.292-5.763-3.44-8.446-1.848-4.312 2.558-3.858 10.237-8.619 11.819-4.202 1.389-8.546-3.513-12.779-2.229-5.909 1.785-3.685 12.127-8.942 15.358-2.725 1.67-6.275.626-9.114-.83-3.529-1.817-7.037-4.672-7.496-8.608-.611-5.252 4.317-9.36 8.9-11.996s9.903-5.575 10.942-10.754c.35-1.723.157-3.518.527-5.236 1.065-4.996 6.327-7.825 11.192-9.381s10.273-2.751 13.52-6.698c.783-.95 1.399-2.02 2.005-3.096 19.686 18.618 31.969 44.975 31.969 74.203z" fill="#02ffb3"/></g><path d="m358.394 210.276c0 17.05-4.18 33.13-11.58 47.25-2.16-5.54-3.35-11.58-3.35-17.89 0-13.78 5.65-26.24 14.76-35.19.109 1.93.17 3.87.17 5.83z" fill="#01eca5"/></g></g><g><g><g><circle cx="392.821" cy="218.638" fill="#02ffb3" r="49.359"/><path d="m409.903 212.668c0-9.419-7.663-17.082-17.082-17.082s-17.082 7.663-17.082 17.082c0 4.646 1.869 8.858 4.889 11.941-3.019 3.083-4.889 7.296-4.889 11.941 0 2.839 2.302 5.141 5.141 5.141s5.141-2.302 5.141-5.141c0-3.749 3.051-6.8 6.8-6.8s6.8 3.05 6.8 6.8c0 2.839 2.302 5.141 5.141 5.141s5.141-2.302 5.141-5.141c0-4.645-1.869-8.858-4.889-11.941 3.019-3.083 4.889-7.295 4.889-11.941zm-17.082-6.8c3.749 0 6.8 3.05 6.8 6.8 0 3.749-3.051 6.8-6.8 6.8s-6.8-3.05-6.8-6.8c0-3.749 3.05-6.8 6.8-6.8z" fill="#fff"/></g></g><g><g><circle cx="182.302" cy="375.114" fill="#9fb0fe" r="49.359"/><path d="m199.384 369.144c0-9.419-7.663-17.082-17.082-17.082s-17.082 7.663-17.082 17.082c0 4.646 1.869 8.858 4.889 11.941-3.019 3.083-4.889 7.296-4.889 11.941 0 2.839 2.302 5.141 5.141 5.141s5.141-2.302 5.141-5.141c0-3.749 3.05-6.8 6.8-6.8 3.749 0 6.8 3.051 6.8 6.8 0 2.839 2.302 5.141 5.141 5.141s5.141-2.302 5.141-5.141c0-4.645-1.869-8.858-4.889-11.941 3.019-3.083 4.889-7.296 4.889-11.941zm-17.082-6.8c3.749 0 6.8 3.05 6.8 6.8s-3.05 6.8-6.8 6.8c-3.749 0-6.8-3.05-6.8-6.8s3.051-6.8 6.8-6.8z" fill="#fff"/></g></g><g><g><circle cx="182.302" cy="90.448" fill="#ff5ba8" r="49.359"/><path d="m199.384 84.477c0-9.419-7.663-17.082-17.082-17.082s-17.082 7.663-17.082 17.082c0 4.646 1.869 8.858 4.889 11.941-3.019 3.082-4.889 7.296-4.889 11.941 0 2.839 2.302 5.141 5.141 5.141s5.141-2.302 5.141-5.141c0-3.749 3.05-6.8 6.8-6.8 3.749 0 6.8 3.05 6.8 6.8 0 2.839 2.302 5.141 5.141 5.141s5.141-2.302 5.141-5.141c0-4.645-1.869-8.858-4.889-11.941 3.019-3.082 4.889-7.295 4.889-11.941zm-17.082-6.8c3.749 0 6.8 3.05 6.8 6.8s-3.05 6.8-6.8 6.8c-3.749 0-6.8-3.05-6.8-6.8s3.051-6.8 6.8-6.8z" fill="#fff"/></g></g></g><g><path d="m189.233 161.146c-2.27.33-4.58.49-6.93.49-5.06 0-9.94-.76-14.54-2.19.87-1.51 1.77-2.99 2.72-4.45 1.8 2.3 4.41 3.02 8.82 3.22 2.72-2.75 5.59-3.42 8.61-1.99.43.99.86 1.97 1.29 2.96-.07.68-.07 1.34.03 1.96z" fill="#01eca5"/></g></g></g><path d="m90.659 141.075c-2.761 0-5-2.238-5-5 0-3.309-2.691-6-6-6-2.761 0-5-2.238-5-5s2.239-5 5-5c3.309 0 6-2.691 6-6 0-2.762 2.239-5 5-5s5 2.238 5 5c0 3.309 2.691 6 6 6 2.761 0 5 2.238 5 5s-2.239 5-5 5c-3.309 0-6 2.691-6 6 0 2.762-2.239 5-5 5z" fill="#ff7eb8"/><path d="m370.139 430.303c-2.762 0-5-2.238-5-5 0-3.309-2.691-6-6-6-2.762 0-5-2.238-5-5s2.238-5 5-5c3.309 0 6-2.691 6-6 0-2.762 2.238-5 5-5s5 2.238 5 5c0 3.309 2.691 6 6 6 2.762 0 5 2.238 5 5s-2.238 5-5 5c-3.309 0-6 2.691-6 6 0 2.761-2.239 5-5 5z" fill="#6583fe"/><path d="m67.274 206.275c-2.761 0-5-2.238-5-5 0-3.309-2.691-6-6-6-2.761 0-5-2.238-5-5s2.239-5 5-5c3.309 0 6-2.691 6-6 0-2.762 2.239-5 5-5s5 2.238 5 5c0 3.309 2.691 6 6 6 2.761 0 5 2.238 5 5s-2.239 5-5 5c-3.309 0-6 2.691-6 6 0 2.762-2.239 5-5 5z" fill="#6583fe"/><path d="m392.82 378.344c-1.279 0-2.56-.488-3.535-1.465l-11-11c-1.953-1.952-1.953-5.118 0-7.07l11-11c1.951-1.953 5.119-1.953 7.07 0l11 11c1.953 1.952 1.953 5.118 0 7.07l-11 11c-.975.976-2.255 1.465-3.535 1.465zm-3.928-16 3.929 3.929 3.929-3.929-3.929-3.929z" fill="#01eca5"/><path d="m367.949 85.775c-1.279 0-2.56-.488-3.535-1.465l-11-11c-1.953-1.952-1.953-5.118 0-7.07l11-11c1.951-1.953 5.119-1.953 7.07 0l11 11c1.953 1.952 1.953 5.118 0 7.07l-11 11c-.975.977-2.255 1.465-3.535 1.465zm-3.928-16 3.929 3.929 3.929-3.929-3.929-3.929z" fill="#ff7eb8"/></g></g><g fill="#2626bc"><path d="m235.56 464.853c4.655 6.925 12.413 11.06 20.753 11.06 8.34 0 16.099-4.135 20.754-11.06 29.567-43.98 82.597-126.82 109.004-192.289 2.213.276 4.462.434 6.749.434 29.974 0 54.359-24.385 54.359-54.358 0-29.45-23.546-53.489-52.799-54.32-8.856-26.634-25.12-50.001-47.174-67.666-22.941-18.376-50.538-29.255-79.807-31.462-2.752-.181-5.154 1.856-5.362 4.61-.207 2.754 1.856 5.154 4.61 5.362 27.25 2.054 52.945 12.184 74.307 29.294 19.859 15.906 34.688 36.764 43.103 60.537-25.821 4.204-45.596 26.653-45.596 53.643 0 24.164 15.853 44.686 37.701 51.737-12.232 29.88-41.54 90.939-107.394 188.897-2.836 4.219-7.376 6.639-12.456 6.639-5.079 0-9.619-2.42-12.455-6.639-3.867-5.752-7.785-11.651-11.644-17.533-1.516-2.309-4.615-2.953-6.924-1.438s-2.952 4.615-1.438 6.924c3.882 5.915 7.821 11.845 11.709 17.628zm112.902-246.214c0-24.46 19.899-44.359 44.358-44.359 24.46 0 44.359 19.899 44.359 44.359 0 24.459-19.899 44.358-44.359 44.358-24.459 0-44.358-19.899-44.358-44.358z"/><path d="m127.943 375.114c0 29.974 24.385 54.359 54.359 54.359s54.359-24.386 54.359-54.359-24.385-54.359-54.359-54.359c-7.107 0-13.893 1.385-20.121 3.876-27.445-52.097-41.368-90.569-41.368-114.356 0-28.722 8.824-55.988 25.517-79.123 9.592 8.487 22.187 13.654 35.971 13.654 29.974 0 54.359-24.386 54.359-54.359s-24.385-54.358-54.359-54.358-54.359 24.385-54.359 54.358c0 12.526 4.27 24.066 11.415 33.269-18.678 25.18-28.544 55.061-28.544 86.559 0 25.402 14.292 65.404 42.465 118.911-15.21 9.647-25.335 26.622-25.335 45.928zm54.359-329.025c24.459 0 44.359 19.899 44.359 44.358 0 24.46-19.899 44.359-44.359 44.359s-44.359-19.899-44.359-44.359c0-24.459 19.899-44.358 44.359-44.358zm0 284.666c24.459 0 44.359 19.899 44.359 44.359s-19.899 44.359-44.359 44.359-44.359-19.899-44.359-44.359 19.899-44.359 44.359-44.359z"/></g></g></svg>