<svg id="Capa_1" enable-background="new 0 0 512 512" height="512" viewBox="0 0 512 512" width="512" xmlns="http://www.w3.org/2000/svg" xmlns:xlink="http://www.w3.org/1999/xlink"><linearGradient id="SVGID_1_" gradientUnits="userSpaceOnUse" x1="477.749" x2="274.749" y1="332.861" y2="249.861"><stop offset="0" stop-color="#c7d3ff"/><stop offset=".593" stop-color="#e7d8f5"/><stop offset=".997" stop-color="#ffdbed"/></linearGradient><path d="m342.367.425c-95.818 8.652-105.091 192.429-146.416 286.587-20.478 46.658-68.772 94.794-60.258 149.782 9.605 62.035 72.897 80.075 121.683 74.14 120.723-14.685 172.899-141.053 180.797-260.801 4.869-73.829 20.3-260.192-95.806-249.708z" fill="url(#SVGID_1_)"/><path d="m414.554 132.006h-36.94v-11.722c0-5.523-4.477-10-10-10h-11.833c-5.523 0-10 4.477-10 10v11.722h-46.299v-11.722c0-5.523-4.477-10-10-10h-11.832c-5.523 0-10 4.477-10 10v11.722h-46.3v-11.722c0-5.523-4.477-10-10-10h-11.833c-5.523 0-10 4.477-10 10v11.722h-46.299v-11.722c0-5.523-4.477-10-10-10h-11.833c-5.523 0-10 4.477-10 10v11.722h-36.94c-11.046 0-20 8.954-20 20v265.712c0 11.046 8.954 20 20 20h340.109c11.046 0 20-8.954 20-20v-265.712c0-11.045-8.954-20-20-20z" fill="#2626bc" opacity=".11"/><path d="m432.554 419.719h-340.108c-11.046 0-20-8.954-20-20v-265.713c0-11.046 8.954-20 20-20h340.108c11.046 0 20 8.954 20 20v265.712c0 11.046-8.954 20.001-20 20.001z" fill="#ffc4df"/><path d="m390.611 361.782h-253.922c-2.761 0-5-2.239-5-5v-119.469c0-2.761 2.239-5 5-5h253.922c2.761 0 5 2.239 5 5v119.468c0 2.762-2.239 5.001-5 5.001z" fill="#ffdbed"/><path d="m452.554 179.023v-45.016c0-11.046-8.954-20-20-20h-340.108c-11.046 0-20 8.954-20 20v45.016z" fill="#ff7eb8"/><path d="m129.386 122.441v24.051c0 5.523 4.477 10 10 10h11.833c5.523 0 10-4.477 10-10v-24.051z" fill="#ff5ba8"/><path d="m207.518 122.441v24.051c0 5.523 4.477 10 10 10h11.833c5.523 0 10-4.477 10-10v-24.051z" fill="#ff5ba8"/><path d="m285.65 122.441v24.051c0 5.523 4.477 10 10 10h11.833c5.523 0 10-4.477 10-10v-24.051z" fill="#ff5ba8"/><path d="m363.781 122.441v24.051c0 5.523 4.477 10 10 10h11.833c5.523 0 10-4.477 10-10v-24.051z" fill="#ff5ba8"/><path d="m452.554 134.011v45.01h-17.53v-45.01c0-11.05-8.96-20-20-20h17.53c11.05 0 20 8.95 20 20z" fill="#ffa8cf"/><path d="m151.219 143.442h-11.832c-5.523 0-10-4.477-10-10v-31.158c0-5.523 4.477-10 10-10h11.832c5.523 0 10 4.477 10 10v31.158c0 5.523-4.477 10-10 10z" fill="#b7c5ff"/><path d="m161.215 102.281v31.16c0 5.52-4.47 10-10 10h-11.83c-.34 0-.69-.02-1.02-.05 5.04-.52 8.97-4.78 8.97-9.95v-31.16c0-5.17-3.93-9.43-8.97-9.95.33-.03.68-.05 1.02-.05h11.83c5.53 0 10 4.48 10 10z" fill="#d2deff"/><path d="m229.35 143.442h-11.833c-5.523 0-10-4.477-10-10v-31.158c0-5.523 4.477-10 10-10h11.833c5.523 0 10 4.477 10 10v31.158c0 5.523-4.477 10-10 10z" fill="#b7c5ff"/><path d="m239.347 102.281v31.16c0 5.52-4.47 10-10 10h-11.83c-.34 0-.69-.02-1.02-.05 5.04-.52 8.97-4.78 8.97-9.95v-31.16c0-5.17-3.93-9.43-8.97-9.95.33-.03.68-.05 1.02-.05h11.83c5.53 0 10 4.48 10 10z" fill="#d2deff"/><path d="m307.482 143.442h-11.832c-5.523 0-10-4.477-10-10v-31.158c0-5.523 4.477-10 10-10h11.833c5.523 0 10 4.477 10 10v31.158c-.001 5.523-4.478 10-10.001 10z" fill="#b7c5ff"/><path d="m317.479 102.281v31.16c0 5.52-4.47 10-10 10h-11.83c-.34 0-.69-.02-1.02-.05 5.04-.52 8.97-4.78 8.97-9.95v-31.16c0-5.17-3.93-9.43-8.97-9.95.33-.03.68-.05 1.02-.05h11.83c5.53 0 10 4.48 10 10z" fill="#d2deff"/><path d="m385.614 143.442h-11.832c-5.523 0-10-4.477-10-10v-31.158c0-5.523 4.477-10 10-10h11.832c5.523 0 10 4.477 10 10v31.158c0 5.523-4.477 10-10 10z" fill="#b7c5ff"/><path d="m395.611 102.281v31.16c0 5.52-4.47 10-10 10h-11.83c-.34 0-.69-.02-1.02-.05 5.04-.52 8.97-4.78 8.97-9.95v-31.16c0-5.17-3.93-9.43-8.97-9.95.33-.03.68-.05 1.02-.05h11.83c5.53 0 10 4.48 10 10z" fill="#d2deff"/><path d="m145.606 256.23h-27.834c-5.523 0-10-4.477-10-10v-27.834c0-5.523 4.477-10 10-10h27.834c5.523 0 10 4.477 10 10v27.834c0 5.523-4.477 10-10 10z" fill="#ff7eb8"/><path d="m211.011 256.23h-27.834c-5.523 0-10-4.477-10-10v-27.834c0-5.523 4.477-10 10-10h27.834c5.523 0 10 4.477 10 10v27.834c0 5.523-4.477 10-10 10z" fill="#ff7eb8"/><path d="m276.417 256.23h-27.834c-5.523 0-10-4.477-10-10v-27.834c0-5.523 4.477-10 10-10h27.834c5.523 0 10 4.477 10 10v27.834c0 5.523-4.477 10-10 10z" fill="#ff7eb8"/><path d="m341.823 256.23h-27.834c-5.523 0-10-4.477-10-10v-27.834c0-5.523 4.477-10 10-10h27.834c5.523 0 10 4.477 10 10v27.834c0 5.523-4.478 10-10 10z" fill="#ff7eb8"/><path d="m407.228 256.23h-27.834c-5.523 0-10-4.477-10-10v-27.834c0-5.523 4.477-10 10-10h27.834c5.523 0 10 4.477 10 10v27.834c0 5.523-4.477 10-10 10z" fill="#ff7eb8"/><g fill="#97ffd2"><path d="m145.606 320.964h-27.834c-5.523 0-10-4.477-10-10v-27.834c0-5.523 4.477-10 10-10h27.834c5.523 0 10 4.477 10 10v27.834c0 5.523-4.477 10-10 10z"/><path d="m211.011 320.964h-27.834c-5.523 0-10-4.477-10-10v-27.834c0-5.523 4.477-10 10-10h27.834c5.523 0 10 4.477 10 10v27.834c0 5.523-4.477 10-10 10z"/><path d="m276.417 320.964h-27.834c-5.523 0-10-4.477-10-10v-27.834c0-5.523 4.477-10 10-10h27.834c5.523 0 10 4.477 10 10v27.834c0 5.523-4.477 10-10 10z"/><path d="m341.823 320.964h-27.834c-5.523 0-10-4.477-10-10v-27.834c0-5.523 4.477-10 10-10h27.834c5.523 0 10 4.477 10 10v27.834c0 5.523-4.478 10-10 10z"/><path d="m407.228 320.964h-27.834c-5.523 0-10-4.477-10-10v-27.834c0-5.523 4.477-10 10-10h27.834c5.523 0 10 4.477 10 10v27.834c0 5.523-4.477 10-10 10z"/><path d="m145.606 385.699h-27.834c-5.523 0-10-4.477-10-10v-27.834c0-5.523 4.477-10 10-10h27.834c5.523 0 10 4.477 10 10v27.834c0 5.522-4.477 10-10 10z"/><path d="m211.011 385.699h-27.834c-5.523 0-10-4.477-10-10v-27.834c0-5.523 4.477-10 10-10h27.834c5.523 0 10 4.477 10 10v27.834c0 5.522-4.477 10-10 10z"/><path d="m276.417 385.699h-27.834c-5.523 0-10-4.477-10-10v-27.834c0-5.523 4.477-10 10-10h27.834c5.523 0 10 4.477 10 10v27.834c0 5.522-4.477 10-10 10z"/><path d="m341.823 385.699h-27.834c-5.523 0-10-4.477-10-10v-27.834c0-5.523 4.477-10 10-10h27.834c5.523 0 10 4.477 10 10v27.834c0 5.522-4.478 10-10 10z"/></g><path d="m379.698 495.364c-3.74 0-7.479-1.423-10.326-4.27-5.694-5.694-5.694-14.958 0-20.651 5.694-5.694 14.958-5.694 20.652 0 5.693 5.693 5.693 14.957 0 20.65-2.847 2.847-6.587 4.271-10.326 4.271zm0-19.196c-1.179 0-2.357.449-3.255 1.347-1.794 1.794-1.794 4.714 0 6.509 1.795 1.793 4.715 1.793 6.509 0 1.794-1.795 1.794-4.715 0-6.51-.897-.897-2.076-1.346-3.254-1.346z" fill="#8399fe"/><path d="m209.394 70.991c-3.901 0-7.568-1.52-10.326-4.278-5.693-5.693-5.693-14.957 0-20.65 5.694-5.694 14.958-5.693 20.651-.001 5.694 5.694 5.694 14.958 0 20.651-2.758 2.759-6.425 4.278-10.325 4.278zm0-19.204c-1.179 0-2.357.449-3.254 1.346-1.794 1.795-1.794 4.715 0 6.51.87.869 2.025 1.349 3.254 1.349s2.385-.479 3.255-1.349c1.794-1.795 1.794-4.715 0-6.51-.898-.897-2.077-1.346-3.255-1.346z" fill="#01eca5"/><path d="m258.745 27.486h-3.25v-3.25c0-2.762-2.239-5-5-5s-5 2.238-5 5v3.25h-3.25c-2.761 0-5 2.238-5 5s2.239 5 5 5h3.25v3.25c0 2.762 2.239 5 5 5s5-2.238 5-5v-3.25h3.25c2.761 0 5-2.238 5-5s-2.239-5-5-5z" fill="#ff7eb8"/><path d="m341.734 444.773h-3.25v-3.25c0-2.762-2.239-5-5-5s-5 2.238-5 5v3.25h-3.25c-2.761 0-5 2.238-5 5s2.239 5 5 5h3.25v3.25c0 2.762 2.239 5 5 5s5-2.238 5-5v-3.25h3.25c2.761 0 5-2.238 5-5s-2.238-5-5-5z" fill="#ff7eb8"/><path d="m122.874 444.773h-3.25v-3.25c0-2.762-2.239-5-5-5s-5 2.238-5 5v3.25h-3.25c-2.761 0-5 2.238-5 5s2.239 5 5 5h3.25v3.25c0 2.762 2.239 5 5 5s5-2.238 5-5v-3.25h3.25c2.761 0 5-2.238 5-5s-2.239-5-5-5z" fill="#ff7eb8"/><path d="m432.554 109.006h-31.94v-6.722c0-8.271-6.729-15-15-15h-11.833c-8.271 0-15 6.729-15 15v6.722h-36.299v-6.722c0-8.271-6.729-15-15-15h-11.833c-8.271 0-15 6.729-15 15v6.722h-36.299v-6.722c0-8.271-6.729-15-15-15h-11.833c-8.271 0-15 6.729-15 15v6.722h-36.299v-6.722c0-8.271-6.729-15-15-15h-11.833c-8.271 0-15 6.729-15 15v6.722h-31.94c-13.785 0-25 11.215-25 25v265.713c0 13.785 11.215 25 25 25h68.338c2.761 0 5-2.238 5-5s-2.239-5-5-5h-68.337c-8.271 0-15-6.729-15-15v-215.697h370.108v134.928c0 2.762 2.239 5 5 5s5-2.238 5-5v-184.944c0-13.785-11.215-25-25-25zm-63.773-6.722c0-2.757 2.243-5 5-5h11.833c2.757 0 5 2.243 5 5v31.157c0 2.757-2.243 5-5 5h-11.833c-2.757 0-5-2.243-5-5zm-78.132 0c0-2.757 2.243-5 5-5h11.833c2.757 0 5 2.243 5 5v31.157c0 2.757-2.243 5-5 5h-11.833c-2.757 0-5-2.243-5-5zm-78.131 0c0-2.757 2.243-5 5-5h11.833c2.757 0 5 2.243 5 5v31.157c0 2.757-2.243 5-5 5h-11.833c-2.757 0-5-2.243-5-5zm-78.132 0c0-2.757 2.243-5 5-5h11.833c2.757 0 5 2.243 5 5v31.157c0 2.757-2.243 5-5 5h-11.833c-2.757 0-5-2.243-5-5zm-56.94 71.738v-40.017c0-8.271 6.729-15 15-15h31.94v14.436c0 8.271 6.729 15 15 15h11.833c8.271 0 15-6.729 15-15v-14.436h36.299v14.436c0 8.271 6.729 15 15 15h11.833c8.271 0 15-6.729 15-15v-14.436h36.299v14.436c0 8.271 6.729 15 15 15h11.833c8.271 0 15-6.729 15-15v-14.436h36.299v14.436c0 8.271 6.729 15 15 15h11.833c8.271 0 15-6.729 15-15v-14.436h31.94c8.271 0 15 6.729 15 15v40.017z" fill="#2626bc"/><path d="m452.554 342.05c-2.761 0-5 2.238-5 5v52.669c0 8.271-6.729 15-15 15h-243.671c-2.761 0-5 2.238-5 5s2.239 5 5 5h243.671c13.785 0 25-11.215 25-25v-52.669c0-2.762-2.239-5-5-5z" fill="#2626bc"/></svg>