<svg id="Capa_1" enable-background="new 0 0 512 512" height="512" viewBox="0 0 512 512" width="512" xmlns="http://www.w3.org/2000/svg" xmlns:xlink="http://www.w3.org/1999/xlink"><linearGradient id="SVGID_1_" gradientUnits="userSpaceOnUse" x1="513.711" x2="123.731" y1="100.614" y2="409.599"><stop offset="0" stop-color="#c7d3ff"/><stop offset=".593" stop-color="#e7d8f5"/><stop offset=".997" stop-color="#ffdbed"/></linearGradient><path d="m364.823 55.215c-69.098-27.035-164.784-16.764-217.662 31.51-37.336 34.085-8.439 43.8 17.016 106.17 18.423 45.14-164.177 38.927-164.177 120.495 0 94.299 132.251 76.424 181.329 87.218 75.036 16.504 140.496 78.242 220.668 70.103 69.795-7.086 96.403-61.855 106.109-124.642 18.082-116.976-26.329-245.094-143.283-290.854z" fill="url(#SVGID_1_)"/><path d="m409.167 129.606h-46.96v-22.08c0-8.91-10.78-13.37-17.08-7.07l-29.14 29.15h-208.82c-11.05 0-20 8.95-20 20v32.972h-31c-11.05 0-20 8.95-20 20v200c0 11.04 8.95 20 20 20h46.96v22.07c0 8.91 10.78 13.37 17.08 7.07l29.14-29.14h208.82c11.05 0 20-8.96 20-20v-32.972h31c11.05 0 20-8.96 20-20v-200c0-11.05-8.95-20-20-20z" fill="#2626bc" opacity=".11"/><path d="m452.5 129.518v200c0 11.04-8.95 20-20 20h-302c-11.05 0-20-8.96-20-20v-200c0-11.05 8.95-20 20-20h208.82l29.14-29.15c6.3-6.3 17.08-1.84 17.08 7.07v22.08h46.96c11.05 0 20 8.95 20 20z" fill="#ffc4df"/><path d="m295.813 313.906v-170c0-2.761 2.239-5 5-5h116.687c2.761 0 5 2.239 5 5v170c0 2.761-2.239 5-5 5h-116.687c-2.761 0-5-2.238-5-5z" fill="#ffdbed"/><path d="m146.446 313.906v-170c0-2.761 2.239-5 5-5h116.687c2.761 0 5 2.239 5 5v170c0 2.761-2.239 5-5 5h-116.687c-2.761 0-5-2.238-5-5z" fill="#ffdbed"/><path d="m401.5 182.49v200c0 11.04-8.95 20-20 20h-208.82l-29.14 29.14c-6.3 6.3-17.08 1.84-17.08-7.07v-22.07h-46.96c-11.05 0-20-8.96-20-20v-200c0-11.05 8.95-20 20-20h302c11.05 0 20 8.95 20 20z" fill="#02ffb3"/><path d="m401.5 182.49v179.03h-271c-17.64 0-32-14.35-32-32v-167.03h283c11.05 0 20 8.95 20 20z" fill="#01eca5"/><path d="m401.5 182.49v167.03h-271c-11.05 0-20-8.96-20-20v-167.03h271c11.05 0 20 8.95 20 20z" fill="#9fb0fe"/><path d="m178.283 266.581h155.434v82.937h-155.434z" fill="#b7c5ff"/><g fill="#d2deff"><path d="m365.142 274.619h-218.284c-2.762 0-5-2.239-5-5s2.238-5 5-5h218.284c2.762 0 5 2.239 5 5s-2.238 5-5 5z"/><path d="m365.142 295.079h-218.284c-2.762 0-5-2.239-5-5s2.238-5 5-5h218.284c2.762 0 5 2.239 5 5s-2.238 5-5 5z"/><path d="m365.142 315.539h-218.284c-2.762 0-5-2.239-5-5s2.238-5 5-5h218.284c2.762 0 5 2.239 5 5s-2.238 5-5 5z"/></g><path d="m206.947 240.066h-58.549c-3.612 0-6.54-2.928-6.54-6.54v-20.601c0-3.612 2.928-6.54 6.54-6.54h58.549c3.612 0 6.54 2.928 6.54 6.54v20.601c.001 3.612-2.928 6.54-6.54 6.54z" fill="#ffdbed"/><path d="m249.407 240.066h-15.009c-3.612 0-6.54-2.928-6.54-6.54v-20.601c0-3.612 2.928-6.54 6.54-6.54h15.009c3.612 0 6.54 2.928 6.54 6.54v20.601c0 3.612-2.928 6.54-6.54 6.54z" fill="#97ffd2"/><circle cx="156.738" cy="223.226" fill="#8399fe" r="5.59"/><circle cx="173.648" cy="223.226" fill="#8399fe" r="5.59"/><circle cx="190.558" cy="223.226" fill="#8399fe" r="5.59"/><path d="m432.5 104.518h-41.96v-17.08c0-6.181-3.548-11.49-9.261-13.856-5.716-2.367-11.982-1.121-16.355 3.251l-27.675 27.685h-84.865c-2.761 0-5 2.239-5 5s2.239 5 5 5h86.937c1.326 0 2.599-.527 3.536-1.465l29.139-29.149c2.195-2.193 4.732-1.384 5.457-1.083.725.3 3.088 1.52 3.088 4.618v22.08c0 2.761 2.239 5 5 5h46.96c8.271 0 15 6.729 15 15v200c0 8.271-6.729 15-15 15h-302c-8.271 0-15-6.729-15-15v-162.03h266c8.271 0 15 6.729 15 15v138.931c0 2.761 2.239 5 5 5s5-2.239 5-5v-138.932c0-13.785-11.215-25-25-25h-266v-27.97c0-8.271 6.729-15 15-15h93.784c2.761 0 5-2.239 5-5s-2.239-5-5-5h-93.785c-13.785 0-25 11.215-25 25v27.97h-26c-13.785 0-25 11.215-25 25v200c0 13.785 11.215 25 25 25h41.964v17.073c0 6.182 3.548 11.492 9.259 13.858 1.915.793 3.89 1.18 5.836 1.18 3.861 0 7.605-1.525 10.512-4.431l27.68-27.68h206.749c13.785 0 25-11.215 25-25v-27.97h26c13.785 0 25-11.215 25-25v-200c0-13.785-11.215-25-25-25zm-36 277.97c0 8.271-6.729 15-15 15h-208.82c-1.326 0-2.598.527-3.536 1.464l-29.144 29.145c-2.193 2.193-4.725 1.384-5.449 1.083-.724-.3-3.086-1.519-3.086-4.619v-22.073c0-2.761-2.239-5-5-5h-46.965c-8.271 0-15-6.729-15-15v-200c0-8.271 6.729-15 15-15h26v162.03c0 13.785 11.215 25 25 25h266z" fill="#2626bc"/><path d="m74.477 132.393c-3.901 0-7.568-1.519-10.326-4.278-5.693-5.693-5.693-14.957 0-20.651 2.758-2.758 6.425-4.277 10.326-4.277 3.9 0 7.568 1.519 10.326 4.278 5.693 5.693 5.693 14.957 0 20.651-2.758 2.758-6.426 4.277-10.326 4.277zm0-19.206c-1.229 0-2.385.479-3.255 1.348-1.794 1.795-1.794 4.715 0 6.509.87.87 2.025 1.349 3.255 1.349 1.229 0 2.385-.479 3.254-1.348 1.794-1.794 1.794-4.714 0-6.509-.869-.87-2.025-1.349-3.254-1.349z" fill="#8399fe"/><path d="m442.897 403.727c-3.9 0-7.568-1.519-10.326-4.278-5.693-5.693-5.693-14.957 0-20.651 2.758-2.758 6.425-4.277 10.326-4.277s7.568 1.519 10.326 4.278c5.693 5.693 5.693 14.957 0 20.651-2.758 2.758-6.425 4.277-10.326 4.277zm0-19.206c-1.229 0-2.385.479-3.254 1.348-1.794 1.795-1.794 4.715 0 6.509.87.87 2.025 1.349 3.254 1.349s2.385-.479 3.255-1.348c1.794-1.794 1.794-4.714 0-6.509-.87-.87-2.026-1.349-3.255-1.349z" fill="#8399fe"/><path d="m102.333 78.081h-3.25v-3.25c0-2.761-2.239-5-5-5s-5 2.239-5 5v3.25h-3.25c-2.761 0-5 2.239-5 5s2.239 5 5 5h3.25v3.25c0 2.761 2.239 5 5 5s5-2.239 5-5v-3.25h3.25c2.761 0 5-2.239 5-5s-2.238-5-5-5z" fill="#ff7eb8"/><path d="m482.583 356.52h-3.25v-3.25c0-2.761-2.239-5-5-5s-5 2.239-5 5v3.25h-3.25c-2.761 0-5 2.239-5 5s2.239 5 5 5h3.25v3.25c0 2.761 2.239 5 5 5s5-2.239 5-5v-3.25h3.25c2.761 0 5-2.239 5-5s-2.238-5-5-5z" fill="#ff7eb8"/><path d="m183.25 437.83h-3.25v-3.25c0-2.761-2.239-5-5-5s-5 2.239-5 5v3.25h-3.25c-2.761 0-5 2.239-5 5s2.239 5 5 5h3.25v3.25c0 2.761 2.239 5 5 5s5-2.239 5-5v-3.25h3.25c2.761 0 5-2.239 5-5s-2.239-5-5-5z" fill="#01eca5"/><path d="m356.375 223.226c4.255-3.712 6.96-9.158 6.96-15.234 0-11.157-9.077-20.234-20.234-20.234s-20.234 9.077-20.234 20.234c0 6.077 2.705 11.522 6.96 15.234-4.255 3.712-6.96 9.158-6.96 15.234 0 2.761 2.239 5 5 5s5-2.239 5-5c0-5.643 4.591-10.234 10.234-10.234s10.234 4.591 10.234 10.234c0 2.761 2.239 5 5 5s5-2.239 5-5c0-6.077-2.705-11.522-6.96-15.234zm-23.509-15.235c0-5.643 4.591-10.234 10.234-10.234s10.234 4.591 10.234 10.234-4.591 10.234-10.234 10.234-10.234-4.591-10.234-10.234z" fill="#d2deff"/></svg>